<svg width="600" height="240" viewBox="0 0 600 240" fill="none" xmlns="http://www.w3.org/2000/svg">
<path d="M237.458 218.503L265.32 242.455L88.3672 242.455L63.4373 218.503L237.458 218.503Z" fill="#3180FF" fill-opacity="0.75"/>
<path d="M363.573 218.503L391.436 242.455L370.905 242.455L345.975 218.503L363.573 218.503Z" fill="#3180FF" fill-opacity="0.75"/>
<path d="M336.2 218.503L364.062 242.455L343.532 242.455L318.602 218.503L336.2 218.503Z" fill="#3180FF" fill-opacity="0.75"/>
<path d="M308.827 218.503L336.689 242.455L316.159 242.455L291.229 218.503L308.827 218.503Z" fill="#3180FF" fill-opacity="0.75"/>
<path d="M281.452 218.503L309.314 242.455L288.784 242.455L263.854 218.503L281.452 218.503Z" fill="#3180FF" fill-opacity="0.75"/>
<path d="M600.163 170.598L600.163 19.5526L576 -0.000200477L576 185.752L538.361 222.902L415.389 222.902L375.305 190.151L66.5274 190.151L24 148.113L24 96L17.1565 104L17.1565 151.046L63.5945 197.484L371.395 197.483L412.456 229.746L541.016 229.746L600.163 170.598Z" fill="#3180FF" fill-opacity="0.75"/>
<path d="M568.5 182.819L568.5 143.5L32.2092 143.5L32.2092 147.191L69.7923 184.774L376.772 184.774L417.344 218.503L534.172 218.503L568.5 182.819Z" fill="#3180FF" fill-opacity="0.1"/>
</svg>
