<svg width="16" height="16" viewBox="0 0 16 16" fill="none" xmlns="http://www.w3.org/2000/svg">
<g clip-path="url(#clip0_80_51)">
<path d="M9.41502 8.00014L15.7068 1.70834C16.0977 1.31777 16.0977 0.684052 15.7068 0.293482C15.3159 -0.0974205 14.6829 -0.0974205 14.292 0.293482L8.00017 6.58528L1.70803 0.293482C1.31713 -0.0974205 0.68408 -0.0974205 0.293177 0.293482C-0.0977257 0.684052 -0.0977257 1.31777 0.293177 1.70834L6.58531 8.00014L0.293177 14.2919C-0.0977257 14.6825 -0.0977257 15.3162 0.293177 15.7068C0.488629 15.9019 0.744783 15.9996 1.0006 15.9996C1.25643 15.9996 1.51258 15.9019 1.70803 15.7065L8.00017 9.41466L14.292 15.7065C14.4874 15.9019 14.7436 15.9996 14.9994 15.9996C15.2552 15.9996 15.5114 15.9019 15.7068 15.7065C16.0977 15.3159 16.0977 14.6822 15.7068 14.2916L9.41502 8.00014Z" fill="white"/>
</g>
<defs>
<clipPath id="clip0_80_51">
<rect width="16" height="16" fill="white"/>
</clipPath>
</defs>
</svg>
