<svg xmlns="http://www.w3.org/2000/svg" viewBox="0 0 1358.62 209.5">
  <g data-name="Layer 2">
    <g data-name="Layer 1">
      <path d="M1237 48.21c-.32-3.12 1.46-4.06 4.18-4 2.42-1.72 5.22-1.38 7.93-1.38 22.91 0 45.85.57 68.74-.17 25.38-.82 49.43 28.77 32 56.44l.07-.09c-2.49 3.57-1.91 6.88.37 10.41 5.51 8.53 6.1 17.93 4.35 27.66 0 3-1.66 4.15-4.49 3.95-6.47 2.9-13.1 1.9-19.74.83a3.93 3.93 0 01-1.68-1.65c-1.33-3-.8-6.22-.91-9.36-.31-8.18-4.28-12.08-12.85-12.12-19.39-.1-38.78 0-58.17 0-1.89 0-3.79 0-5.68-.06-4.3-.16-6.74-2.3-6.74-6.66 0-5.21-1.19-10.54 1.28-15.56-.22-3.1 1.5-4.12 4.29-4 2.58-2 5.6-1.52 8.51-1.53h55.49a33.12 33.12 0 0010.57-1.38 2.44 2.44 0 00.75-.47c5.85-9.76 1.32-18.32-10-18.4-22.51-.17-45 0-67.54-.06-11.71 0-12.32-.63-12.27-12.6-.08-3.34-.61-6.79 1.54-9.8zM542.58 61.86a83.54 83.54 0 0115.78-14.56c7.87-4.06 16.28-4.72 25-4.59 18.24.27 36.5 0 54.75.09 8.81 0 10.14 1.32 10.19 10.26 0 3.95.7 8-1.2 11.77-.07 2.87-1.63 4.11-4.41 4-2.5 2-5.5 1.79-8.43 1.79h-58c-3.38 0-6.73 0-9.72 2a2 2 0 00-.62 1c-1.32 2.3-1.3 4.82-1.3 7.36v44.25c0 10.05 3.63 13.72 13.73 13.8 17.07.14 34.13-.09 51.2.1a13.72 13.72 0 014.44.76 3.75 3.75 0 011.67 1.48 10.57 10.57 0 01.93 4.4c-.31 5.15 1.45 10.53-1.59 15.41.28 3.11-1.41 4.15-4.22 4-2.08 1.9-4.68 1.64-7.18 1.65-16.4 0-32.81.15-49.21 0a37.77 37.77 0 01-37.61-37.89c-.12-14.3.25-28.61-.13-42.9-.18-8.79 1.49-16.76 5.93-24.18zm677.84 75.22c0 3-1.66 4.15-4.5 3.95-6.42 2.91-13 1.86-19.63.87a3.84 3.84 0 01-1.71-1.58c-1.31-2.78-.91-5.76-1-8.68-.21-9.11-3.94-12.85-13.23-12.93-12-.09-24 0-35.93 0-9 0-10.26-1.23-10.36-10.1a97.77 97.77 0 01.2-12c.25-3.26 1.94-5.15 5.24-5.48 13.55-.48 27.1-.12 40.65-.19 3.21 0 6.25-.23 8.77-2.48a15.09 15.09 0 011.74-1.33c5.19-6.44 2.86-14-5-16a26.31 26.31 0 00-6.91-.49h-46.18c-2.93 0-5.92.3-8.74-.94a3.76 3.76 0 01-1.57-1.66c-1-6.63-2.11-13.27.88-19.73-.32-3.17 1.56-4 4.24-4 2.21-1.64 4.8-1.36 7.31-1.36 16.44 0 32.89.39 49.31-.11 25.43-.79 48.83 29 31.56 56.36l.06-.09c-2.48 3.57-1.91 6.88.38 10.41 5.58 8.48 6.17 17.83 4.42 27.56zm-860.08.59a1.46 1.46 0 00.94-.44c3.33-5.22 3.23-11.15 3.37-17 .37-16.36-.55-32.74.5-49.1.66-2.89 2.71-4 5.42-4.16 5-.3 10.06-.16 15.08-.11 3.88 0 6.79 1.71 6.72 5.85-.35 20.7 1.82 41.46-1.29 62.1a26.07 26.07 0 01-1.82 6c-1.33 2.27-2.59 4.59-3.76 6.95a86.29 86.29 0 01-15.72 14.52c-8.41 3.91-17.28 4.8-26.46 4.53-10.31-.31-20.65-.21-31-.05-18.88.29-39.25-13-39.75-41a6.74 6.74 0 011.8-5.22c-.11-3.24 1.83-4.12 4.63-4 5.19-2.67 10.71-1.52 16.11-1.2 3.31.19 4.36 2.67 4.91 5.63C303.38 139 303.41 139 322 139h29.69c2.96 0 5.89-.09 8.65-1.33zM927.6 161c.24 3.06-1.27 4.27-4.2 4-9.94 1.54-16.91-3.79-22.72-10.63-9-10.57-12-23.91-15.76-36.83-1.78-6.18-3-12.53-4.9-18.72-2.07.68-1.8 2.23-2.39 3.25-3.46 9.71-4.9 20-8.57 29.64-1.95 5.11-3.78 10.24-7.41 14.48-3.3 7.09-8.88 11.94-15.57 15.68-4.41 2.94-9.46 6-14.38 3.34-4.39-2.41-2.15-8.06-2.48-12.32a46.69 46.69 0 01.09-7.57 11.75 11.75 0 01.49-3.12 5 5 0 011-1.69c2.83-1.81 5.82-3.4 8.31-5.72 4-6 5.37-13 7-19.89 2.83-11.53 5.69-23 11.32-33.62 3.53-3.87 6.73-8.09 11.43-10.72 10.3-5.83 20.46-4.26 28.2 4.41 5.47 6.11 8.38 13.53 10.57 21.26 2.4 8.5 4.56 17 6.86 25.57 1.6 5.94 3.73 11.64 8.76 15.69a37.42 37.42 0 014 2.76 4.8 4.8 0 011.05 1.71 17.25 17.25 0 01.63 4.1c-.28 5 1.3 10.18-1.33 14.94zm-402.78.11c.18 3.11-1.55 4.13-4.35 4-5.55 3.07-11.45 1.67-17.22 1.17-3-.25-3.93-2.85-4.23-5.52a111.35 111.35 0 01-.24-12c0-20.61.1-41.22-.06-61.84C498.62 74 495 70.62 482 70.61h-46.06c-2.51 0-5.06.25-7.49-.72a4.36 4.36 0 01-1.85-1.55c-1.43-6.77-2.49-13.53.82-20.12-.3-3.69 2.32-3.84 4.9-4 2.45-1.64 5.24-1.39 8-1.39h46.8c21.84 0 38.85 15.86 39.42 37.77.64 24.86.17 49.76.15 74.64a8.34 8.34 0 01-1.87 5.87zm440.09-88.78c-.3-3.08 1.34-4.14 4.15-4 4.85-2.65 10.08-1.08 15.15-1.37a11.37 11.37 0 014.38.83 3.57 3.57 0 011.58 1.61A12.46 12.46 0 01991 74c.18 16.42 0 32.83.09 49.24.08 12 3.9 15.73 16.06 15.75h69.44c9.45 0 10.69 1.17 10.61 10.42 0 3.93 1 8-1.42 11.7.25 3.09-1.37 4.2-4.24 4-2.12 1.78-4.68 1.66-7.2 1.66-24.42 0-48.84.13-73.25 0a38.15 38.15 0 01-37.79-37.9c-.12-16.21 0-32.42 0-48.63 0-2.76-.14-5.53 1.61-7.91zm-292.62-.01c-.18-3.08 1.52-4.12 4.31-4 4.48-2.49 9.42-.86 14.1-1.59a9.16 9.16 0 016 1.25 4 4 0 011.3 1.68 15.23 15.23 0 01.7 4.34c.19 16.63 0 33.24.09 49.86.05 11.73 3.35 15 15 15.09 16.62.08 33.24-.09 49.85.08a14.18 14.18 0 014.48.75 3.85 3.85 0 011.69 1.48 10.25 10.25 0 01.95 4.4c-.31 5.16 1.45 10.55-1.59 15.43.28 3.11-1.4 4.15-4.22 4-2.08 1.9-4.68 1.64-7.17 1.65-16.41 0-32.82.15-49.22 0-21.17-.22-37.45-16.63-37.62-37.85-.13-16.2 0-32.39 0-48.59-.01-2.74-.09-5.49 1.35-7.98z" fill="#fff"/>
      <path d="M793.26 137c.29 3.1-1.37 4.14-4.18 4a24.87 24.87 0 01-20.09-.23l.1.1c-2.22-2.43-1.93-5.45-1.93-8.38V87c0-13.18-3.3-16.42-16.41-16.43h-45.48c-2.94 0-6 .3-8.39-1.92l.1.1c-3.25-6.84-2.68-13.75-.47-20.75-.32-3.16 1.74-3.68 4.19-3.77 2.43-1.68 5.22-1.38 7.94-1.38h47.93c20.53 0 37.28 15.38 38.18 36 .77 17.64.2 35.32.16 53a7.86 7.86 0 01-1.65 5.15zm305.95-64.67c-.26-3.11 1.51-4 4.24-4 5.07-2.68 10.49-1.13 15.76-1.33a6.43 6.43 0 014.18 1.76l-.09-.1a7 7 0 011.77 4.31c.36 16.38.07 32.76.16 49.14.06 13.22 3.66 16.8 16.83 16.86 16.38.07 32.75-.22 49.13.14a6.73 6.73 0 014.32 1.78l-.09-.09a6.75 6.75 0 011.77 4.25c.06 5.4 1.12 10.87-1 16.13.19 3.14-1.61 4.06-4.36 3.91-2.36 1.83-5.14 1.66-7.88 1.66-15.61 0-31.21.08-46.81 0-22.06-.14-39-16.44-39.59-38.51-.43-16.43-.09-32.89-.09-49.34-.02-2.35.22-4.63 1.75-6.57zM428 161.17c.22 3.11-1.51 4.11-4.3 3.94-5.78 3-11.94 1.89-17.88 1.14-4.28-.54-4.34-4.54-4.35-8-.05-12.62 0-25.24 0-37.86V80.64c0-2.94-.24-5.94 2-8.34-.16-3.51 2.18-4 4.87-4 4.76-2.59 9.87-1.19 14.85-1.33a6.53 6.53 0 014.24 1.77l-.1-.09a7 7 0 011.8 4.4c.57 6.73.17 13.48.27 20.22.12 8.78.24 9 8.75 9h41.12c9.63 0 10.81 1.21 10.83 11 0 4 .67 8.06-1.67 11.7.28 3-1.51 3.85-4 4-2.74 1.42-5.71 1.15-8.64 1.16-13 0-26-.11-39 .11-2.4 0-5.76-1.2-6.68 2.79-1.27 6.48-.53 13-.73 19.52-.16 2.93.21 5.92-1.38 8.62zM659.12 137c.3 3.1-1.37 4.14-4.17 4a24.86 24.86 0 01-20.1-.23l.11.1c-2.4-2.62-1.91-5.88-1.93-9-.09-13.21-.08-13.21-13.54-13.21-8.63 0-17.26.1-25.88 0-7-.1-8.57-1.64-8.71-8.59-.1-4.58-.93-9.29 1.29-13.67-.19-3.12 1.58-4.1 4.36-4 2-1.52 4.29-1.54 6.63-1.54h54.38c7.8 0 9.2 1.46 9.26 9.23.07 9.9 0 19.81 0 29.72.01 2.57.18 5.19-1.7 7.19zm147.62-88.77c-.33-3.15 1.47-4.07 4.19-4 5.65-2.65 11.57-1.39 17.36-1 3.25.22 4.35 3 4.54 5.95.21 3.15.11 6.31.1 9.47-.09 25.9.19 51.8-.14 77.7a7 7 0 01-1.81 4.6l.13-.14a7.18 7.18 0 01-4.6 1.82c-4.62.27-9.25.07-13.87.12-4.87.06-7.49-2.15-7.5-7.17q-.09-41 0-82a9.27 9.27 0 011.6-5.35zm120.39.01c-.26-3.11 1.56-4 4.25-4 5.61-2.7 11.5-1.37 17.28-1 2.59.16 3.81 2.3 4.27 4.79a43.06 43.06 0 01.4 7.53v71.75c0 3.32.44 6.76-1.59 9.77.22 3.08-1.46 4.11-4.25 4-6.8 2.62-13.57 2.78-20.31-.23l.09.1c-2.06-2.23-1.93-5-1.93-7.75V56.05c-.02-2.75-.1-5.51 1.79-7.81zm61.87-.01c-.35-3.15 1.43-4.08 4.17-4 2.17-1.72 4.75-1.42 7.25-1.42h76.83c8.79 0 10.07 1.29 10 10.36 0 3.9 1.08 8-1.44 11.64.18 3-1.43 4.09-4.19 4-2.26 2-5 1.8-7.77 1.8h-76.92c-2.74 0-5.51.14-7.73-1.93l.09.1c-3.14-6.78-2.74-13.67-.29-20.55zm244.34 96.39c-.28-3.2 1.57-4.09 4.33-4 1.69-1.58 3.81-1.64 5.93-1.63 27.17.06 54.33-.21 81.5.12a7 7 0 014.55 1.8l-.1-.09a6.7 6.7 0 011.77 4.25c.06 5.4 1.13 10.87-1 16.13.19 3.15-1.61 4.06-4.36 3.91-2.32 1.89-5.1 1.68-7.82 1.68h-76.82c-8.43 0-9.8-1.37-9.69-10 .03-4.09-1.2-8.45 1.71-12.17zM286.69 48.2c-.34-3.13 1.45-4.05 4.17-4 2-1.56 4.32-1.42 6.62-1.42h61.72c7.84 0 9.22 1.42 9.3 9.14.05 4 .2 8-.14 12a7.5 7.5 0 01-2.91 5.36 8.48 8.48 0 01-4.81 1.24c-22.22.22-44.44.1-66.67.07-7.36 0-9-1.56-8.87-8.88.05-4.53-1.2-9.28 1.59-13.51zM1074 113c.16 3.22-1.76 4.09-4.51 4-2.19 1.54-4.66 1.76-7.24 1.76h-54.4c-7.66 0-9.15-1.52-9-9.43.06-4.32-1.28-8.93 1.9-12.82-.15-3.27 1.84-4.09 4.61-4 2.22-1.48 4.72-1.55 7.27-1.55h53.53c8.47 0 9.85 1.35 9.74 9.93-.13 4.03 1.17 8.41-1.9 12.11z" fill="#fff"/>
      <path d="M428 72.37l-.72-3.68c19.38 0 38.75-.14 58.13-.13 10.61 0 15 4.31 15 14.94.07 24.65.24 49.3-.13 73.94-.09 6 1.31 8.33 7.53 7.56 4.14-.51 8.41 0 12.61.09 0 1.65.35 3.57-2.25 3.6h-2.53c-6.28-.15-14.46 2-18.33-1.09-4.09-3.32-1.24-11.84-1.29-18.07-.16-20.83 0-41.67-.08-62.5 0-10.5-4.07-14.63-14.41-14.63-16.41 0-32.82.14-49.22.22-1.46 1.06-2.92 1.38-4.31-.25z" fill="#05fafd"/>
      <path d="M524.82 161.11c-.09-26.31-.12-52.61-.3-78.92-.13-18.41-11.38-32.78-28.5-36.89-3.75-.9-7.53-.77-11.3-.8q-26.21-.18-52.39-.3c-.38-2.82 1-3.58 3.63-3.56 20.22.14 40.46-.34 60.65.38 16.31.59 31.53 15.95 31.87 32.24.58 28 .2 56 .34 84.05.02 3.11-1.07 4.21-4 3.8z" fill="#fd00fe"/>
      <path d="M542.58 61.86c-7.72 23.62-3.84 47.93-3.49 71.9.25 17 17.12 30.83 34.91 31.08 18.94.26 37.89.19 56.83.27.37 2.71-.76 3.66-3.53 3.64-20.23-.13-40.49.38-60.7-.33-15.18-.53-29.85-13.93-31.49-29.11-2.23-20.54-1.81-41.24-.09-61.84a25.12 25.12 0 017.56-15.61z" fill="#02fcfe"/>
      <path d="M964.91 72.33q.12 27.18.23 54.35c.1 22.57 15.55 38.12 38.06 38.21q39.18.17 78.36.22c.36 2.65-.63 3.65-3.45 3.64-28-.12-56 .33-84-.29-17.18-.39-32.36-16.14-32.82-33.38-.51-19.56-.14-39.15-.27-58.73-.02-2.91.79-4.42 3.89-4.02z" fill="#00fefe"/>
      <path d="M672.29 72.32c.11 17.49 1 35 .14 52.46-1.21 24.51 18.2 41.34 40.06 40.3 17.45-.83 35 0 52.47 0 .37 2.69-.73 3.66-3.5 3.64-20.18-.12-40.38.46-60.53-.33-18-.7-32.26-16.89-32.67-36.24-.39-18.49 0-37-.15-55.49-.02-3.13.75-4.83 4.18-4.34z" fill="#03fcfd"/>
      <path d="M1099.21 72.33q.13 26.52.25 53c.08 24.22 15.22 39.46 39.31 39.54q26.52.08 53 .2c.31 2.64-.67 3.66-3.5 3.64-20-.13-40 .37-59.93-.28-17.07-.55-32.35-16.36-32.75-33.45-.45-19.55-.09-39.12-.22-58.68.03-2.83.69-4.4 3.84-3.97z" fill="#00fefe"/>
      <path d="M793.26 137q-.12-26.85-.22-53.71c-.04-23.48-15.21-38.68-38.64-38.8l-53.7-.29c-.41-2.8.88-3.58 3.57-3.56 20.19.14 40.4-.33 60.57.37 16.49.57 31.54 16.16 32 32.74.51 19.77.13 39.55.27 59.32-.01 2.93-.71 4.44-3.85 3.93z" fill="#fc01fe"/>
      <path d="M1085.8 161.11c-.09-5.05-.48-10.12-.18-15.14.26-4.26-1.29-5.25-5.33-5.22-25.08.17-50.16.09-75.23.08-11.91 0-15.86-4-15.84-16q.06-26.23.22-52.46a2.58 2.58 0 013.79.25c0 16.44-.06 32.88 0 49.32 0 10.62 4.47 15 15 15.05 25.29 0 50.58.12 75.87-.08 4.43 0 6 1.2 5.62 5.64a133 133 0 000 14.54c.07 2.91-.72 4.48-3.92 4.02z" fill="#fd00fe"/>
      <path d="M1349.76 99.1c1.41-5.86 4.24-11.29 4.32-17.59.23-20.17-15.06-36.65-35.24-36.91-23.59-.29-47.18-.08-70.77-.11-2.31 0-4.62-.18-6.93-.28-.41-2.84 1-3.58 3.62-3.57 27.11.12 54.24-.47 81.32.46 14.46.5 24.59 9.53 29.77 22.85 4.9 12.59 3.15 24.69-6.09 35.15z" fill="#fa01fd"/>
      <path d="M1215.63 99.1c1.82-6.61 4.66-12.88 4.3-20.09-.91-18.61-15.82-34-34.47-34.39-19.33-.4-38.67-.29-58-.41-.41-2.88 1.09-3.58 3.68-3.56 20.43.12 40.9-.59 61.28.49 14.21.75 24.18 9.62 29.29 22.73 4.9 12.62 3.23 24.74-6.08 35.23z" fill="#fb01fd"/>
      <path d="M951.72 137.08c-.1-28.6-.38-57.21-.15-85.81 0-5.65-1.44-7.42-7-6.86-4.36.44-8.81-.09-13.21-.18-.37-2.83 1-3.67 3.68-3.61 5.47.11 11 .17 16.42 0 3.25-.11 4.45 1 4.44 4.31q-.13 44.23 0 88.47c.03 3.25-1.41 4-4.18 3.68z" fill="#f50dfc"/>
      <path d="M274.4 120.52c.71 8.52.18 17.19 4.77 25.06 7 12 17.22 18.87 31.13 19.21 14.9.37 29.82 0 44.73.12 5.13.05 9.7-2.5 14.75-2.61-5.89 4.53-12.64 6.39-20 6.39-14.08 0-28.16.08-42.24 0-20.82-.13-36.62-15.85-37-36.64 0-2.73.16-5.47-.05-8.19-.16-3.05 1.51-3.55 3.91-3.34z" fill="#01fdfe"/>
      <path d="M1329.65 140.91l-3.75-.3c-1.18-1.12-1.05-2.32-.24-3.57.65-12.28-3.27-16.47-15.49-16.48-20.78 0-41.57-.19-62.35.12-5.36.08-7-1.57-6.48-6.71a98.48 98.48 0 000-13.85c-.16-3.28 1.44-4 4.19-3.71.1 5 .51 10.12.21 15.14-.24 4.26 1.33 5.29 5.37 5.25 20.43-.18 40.87-.08 61.3-.08 14.42 0 17.55 3.08 17.52 17.27.07 2.31-.17 4.61-.28 6.92zM1237 48.21c.07 4.83.5 9.68.13 14.47s1.1 6 5.89 6c24.56-.25 49.13-.18 73.7-.08 9.2 0 14.6 6.11 13 14.39-.52 2.62-1.13 5.44-4.49 6.08 1.89-11.34-2.56-16.63-14.14-16.65-23.74 0-47.48-.22-71.22.14-5.76.09-7.34-1.67-6.8-7.07a95.74 95.74 0 000-13.23c-.13-2.93.82-4.41 3.93-4.05z" fill="#04fdfe"/>
      <path d="M630.89 140.61c-18.75.07-37.5.27-56.24.14-7.51-.05-12.09-4.8-12.17-12.46-.18-15.8-.11-31.61 0-47.41 0-2.82-.26-6.12 3.47-7.33 1.22 15.74.28 31.5.5 47.25.17 12.43 3.81 16.22 16.17 16.23h48c1.65 1.08 1.5 2.29.27 3.58z" fill="#fd02fe"/>
      <path d="M428 72.37l4.32.27c0 7.36.27 14.73-.09 22.06-.22 4.57.93 6.17 5.83 6.07 16.18-.32 32.37.07 48.55-.23 5-.1 6.76 1.39 6.33 6.39a95.69 95.69 0 000 13.86c.21 3.57-1.59 4.36-4.54 4.23-.07-4.63-.51-9.29-.13-13.87.42-5.1-1-6.89-6.47-6.76-16 .38-32-.08-48 .26-5.12.1-6.51-1.54-6.25-6.43.45-8.6.37-17.22.45-25.85z" fill="#fb0afd"/>
      <path d="M923.29 139.45c-5.22-2.5-7.33-7.39-8.84-12.38-3.08-10.22-5.67-20.6-8.63-30.86a75.18 75.18 0 00-4.1-11.21c-7.07-14.94-17-19.24-32.83-14.47 8.61-8.74 23.24-7.82 31.58 2.07 5.4 6.4 8.06 14.12 10.21 22.05 2.42 8.88 4.66 17.81 7.2 26.66 1.09 3.78 2.39 7.58 5.28 10.52 2.46 2.52 2.29 5.05.13 7.62z" fill="#fd02fe"/>
      <path d="M876.55 101.12a10 10 0 012.8-6.74c3 4.12 3.7 8.84 4.85 13.32 2.67 10.38 5.13 20.81 9.11 30.8 5.55 13.92 14.27 24.24 30.09 26.5.68 4.09-2 3.87-4.63 3.52-11-1.43-19.11-7.06-24.76-16.56-6.22-10.47-9.18-22.08-12.3-33.67-1.13-4.23-1.59-8.66-3.64-12.63-1.76-1.1-1.35-2.92-1.52-4.54z" fill="#02fdfe"/>
      <path d="M403.46 72.32c.1 28.36.39 56.72.16 85.08 0 5.94 1.2 8.4 7.5 7.61 4.12-.51 8.38 0 12.58.1.3 2.61-.61 3.76-3.47 3.66-5.66-.2-11.34-.16-17 0-2.73.07-3.63-.95-3.62-3.66q.11-44.71 0-89.42c-.02-3.02 1.44-3.55 3.85-3.37z" fill="#07fefe"/>
      <path d="M1085.78 64.8c-.09-5-.48-10.1-.19-15.12.25-4.23-1.29-5.27-5.34-5.24-27.14.16-54.28.09-81.42.07-1.88 0-3.77-.19-5.65-.29-.38-2.83 1-3.58 3.66-3.57q44.55.09 89.09 0c2.11 0 3.73.29 3.7 3-.07 6.11-.05 12.22 0 18.32.01 2.84-1.83 2.91-3.85 2.83z" fill="#f401fc"/>
      <path d="M1233.34 144.62c.09 5 .47 10.11.17 15.13-.25 4.22 1.24 5.27 5.33 5.24 27.56-.17 55.13-.09 82.69-.08 1.47 0 2.94.13 4.41.2.31 2.63-.66 3.65-3.49 3.64q-44.73-.13-89.46 0c-2.29 0-3.47-.58-3.42-3.15q.18-9.13 0-18.27c-.06-3.04 1.91-2.69 3.77-2.71z" fill="#00fefe"/>
      <path d="M831.22 137c-.06-28.63-.32-57.25 0-85.87.06-5.82-1.7-7.24-7.05-6.75-4.36.39-8.81-.09-13.22-.19-.53-3.42 1.61-3.59 4.15-3.54 6.62.14 13.24.16 19.86.23.75 1.38.5 2.88.5 4.33v87.09c-.05 2.62 1.14 6.7-4.24 4.7z" fill="#fd00fe"/>
      <path d="M659.12 137c-.07-13.06-.31-26.12-.13-39.17.06-4.12-1.12-5.32-5.27-5.29-21.06.12-42.12-.08-63.17-.16-.37-2.72.77-3.62 3.52-3.61q32.45.14 64.89 0c3 0 4 .93 4 4q-.18 20.47 0 41c.04 2.95-1.39 3.51-3.84 3.23z" fill="#fb00fd"/>
      <path d="M806.74 48.23c.08 28.84.29 57.68.1 86.52 0 5.1 1.45 6.55 6.32 6.16 4.6-.37 9.25.05 13.88.12 1.24.71 1.22 1.77.83 2.94l-.55.64c-6.72 0-13.44-.14-20.15.08-3.28.1-4.33-1-4.32-4.29q.15-44.07 0-88.15c0-2.91.82-4.39 3.89-4.02z" fill="#01fcfd"/>
      <path d="M647.1 64.83c-.15-5.46-.46-10.92-.41-16.37 0-3-1.1-4-4.06-4-24 .13-48 0-72 .31-4.09.05-8.15 1.64-12.23 2.51a27.62 27.62 0 0118-6.5c23.35-.13 46.7 0 70-.18 3.42 0 5 .79 4.8 4.55-.27 5.25-.22 10.52 0 15.77.08 3.15-1.2 4.24-4.1 3.91z" fill="#f504fc"/>
      <path d="M360.34 137.67c-1.7 3.7-5.14 3.11-8.18 3.13q-19.25.12-38.49 0c-10.06 0-14.24-4-14.82-13.86a45.83 45.83 0 010-6.31c.25-3.07-1.08-4-4-4-5.25.11-10.51-.11-15.76-.19-.09-2.1.22-3.66 3-3.6q8.82.2 17.65 0c2.82-.07 3.39 1.18 3.58 3.76 1.5 20 1.93 20.22 21.94 20.42 11.64.18 23.39-.83 35.08.65z" fill="#fc01fe"/>
      <path d="M630.89 140.61c-.09-1.19-.18-2.38-.28-3.57 1.21-16.49 1.21-16.49-15-16.49-9.45 0-18.91-.22-28.35.1-4.33.15-5.44-1.41-5.21-5.41a149.52 149.52 0 000-15.12c-.16-3.3 1.44-4 4.17-3.72.12 5.26.46 10.53.27 15.78-.13 3.67 1.24 4.65 4.75 4.6 12.86-.17 25.72.11 38.58-.16 4.2-.09 5.44 1.22 5.23 5.32-.31 6.31-.07 12.65-.06 19z" fill="#04fcfe"/>
      <path d="M366.44 64.71c-.09-4-.21-8-.26-11.95-.12-9.49 1-8.2-8.55-8.23-19.95-.06-39.91 0-59.87 0-2.3 0-4.6-.18-6.9-.28-.4-2.83 1-3.59 3.63-3.58q36 .11 72 0c3.14 0 3.91 1.3 3.86 4.16-.11 6.73 0 13.47 0 20.21l-.71.57a2.57 2.57 0 01-3.2-.9z" fill="#f502fc"/>
      <path d="M286.69 48.2c.07 4.83.48 9.68.11 14.47s1.06 6.06 5.87 6c21.62-.27 43.25-.12 64.87-.1 1.47 0 2.93.16 4.39.24a2.94 2.94 0 01.27 3.11l-.58.59c-24.22 0-48.44-.22-72.66 0-5.1.06-6.62-1.5-6.21-6.38a113.08 113.08 0 000-13.9c-.07-2.91.85-4.39 3.94-4.03z" fill="#08fefe"/>
      <path d="M388 141.85c3.53-12.12 2.07-24.55 2.27-36.88.16-10.48-.11-21 .11-31.45.08-3.81-1.06-5.21-5-5-5 .25-10.05-.08-15.08-.16a2.34 2.34 0 01.14-3.45l-.09.11c6.52-.08 13.05-.06 19.57-.28 3.07-.1 4.53.61 4.5 4.14-.17 19.37.05 38.74-.24 58.11a27 27 0 01-5.85 17 1.45 1.45 0 01-.33-2.14z" fill="#fc05fe"/>
      <path d="M993.23 72.65l-3.79-.25-.27-3.72 92.42.13c.55 4.68-2.89 3.58-5.37 3.58q-38 .06-76.09 0c-2.3.04-4.6.18-6.9.26z" fill="#0afefe"/>
      <path d="M1074 113c-.1-5-.49-10.09-.2-15.11.23-4.25-1.32-5.29-5.4-5.25-20 .19-40 .09-59.94.07-1 0-2.09-.16-3.14-.24-.26-2.7.94-3.61 3.65-3.6q32.71.12 65.42 0c2.31 0 3.46.67 3.41 3.2q-.16 9.12 0 18.25c.02 2.96-1.97 2.6-3.8 2.68z" fill="#f901fd"/>
      <path d="M1000.68 96.43c.1 5 .49 10.11.21 15.14-.22 4.24 1.33 5.28 5.41 5.24 20-.2 40-.09 60-.07 1 0 2.1.14 3.14.22.16 2.62-.94 3.64-3.69 3.63q-32.71-.14-65.43 0c-2.29 0-3.49-.64-3.45-3.18q.15-9.12 0-18.25c-.04-2.99 1.94-2.69 3.81-2.73zm-77.39 43.02q-.06-3.8-.13-7.59.12-39.17.23-78.32c0-2.62-.83-5.88 3.74-5.3l.12 92.67z" fill="#00fefe"/>
      <path d="M1325.66 137l.24 3.57h-88.23c-.56-4.78 3-3.55 5.42-3.55q41.29-.02 82.57-.02z" fill="#fb00fd"/>
      <path d="M366.11 71.89c.06 18.28.22 36.56.09 54.84 0 4 0 8.55-4.91 10.5 1-21.57.36-43.15.33-64.72l-.1.06a5.25 5.25 0 013.83-1.81c.65.1.93.46.76 1.13z" fill="#10f1fb"/>
      <path d="M566.57 72.57c1.36-3.67 4.65-3.93 7.71-3.93 22.8 0 45.6.1 68.41.17.46 4.66-3 3.58-5.47 3.59h-59.93c-3.57.03-7.15.12-10.72.17z" fill="#0bfefe"/>
      <path d="M428.23 132.58c-1.37-3.37.5-4.08 3.31-4.06l52.84.45c.4 4.43-2.76 3.82-5.45 3.84l-46.59.23c-1.5 1.1-2.82.47-4.11-.46z" fill="#1ceefa"/>
      <path d="M1324.43 89.53c-1.52 2.92-4.33 3.12-7.06 3.12q-33.75 0-67.51-.22c.11-1.59-.45-3.58 2.25-3.54 24.1.35 48.22-.89 72.32.64z" fill="#f500fc"/>
      <path d="M1220.42 137.08c-.78-9.52.09-19.56-6.29-27.6-3.64-4.59-2.77-7.55 1.56-10.47a4.83 4.83 0 00.9 4.09c7 8.91 8.13 19.33 7.86 30.19-.07 3.14-1.2 4.11-4.03 3.79zm134.13 0c-.78-9.52.1-19.56-6.28-27.6-3.65-4.6-2.78-7.55 1.56-10.47a4.82 4.82 0 00.89 4.09c7 8.91 8.13 19.33 7.86 30.19-.07 3.14-1.2 4.11-4.03 3.79z" fill="#f906fd"/>
      <path d="M857.46 81.28c-4.89 16.4-9.72 32.82-14.75 49.17-.85 2.73-2.24 5.47-5.15 6.86a10.93 10.93 0 01.71-2.71c4.27-8.54 5.36-18 8-27 2.73-9.19 4.52-18.81 11.19-26.32z" fill="#09f7fc"/>
      <path d="M838.27 134.6c-.23.9-.47 1.8-.7 2.7-2 1.67-3.58 3.91-6.59 3.63l.24-3.92c4.55.63 3.76-2.59 3.76-5.23V40.89c2 1.93 1.13 4.39 1.14 6.61 0 27.41 0 54.83.17 82.24-.03 1.46-2.75 5.02 1.98 4.86z" fill="#eaeaf9"/>
      <path d="M428.23 132.58l4.11.46c0 8.08-.16 16.16.11 24.24.12 3.64-1.59 4.18-4.45 3.89-.47-9.54-.93-19.07.23-28.59z" fill="#ed0bfa"/>
      <path d="M876.55 101.12a7.23 7.23 0 011.52 4.54c-3.29 12.39-5.8 25.05-12.32 36.34-1 1.69-1.27 4.24-4.1 4.19 6.18-12 9.35-25 12.44-38.06.57-2.4.8-4.97 2.46-7.01z" fill="#f509fc"/>
      <path d="M830.84 143.77c.07 5.64.39 11.29.12 16.91-.19 4 1.66 4.7 4.85 3.94 3.45-.82 6.85-1.83 10.27-2.75-4.18 5.57-10.52 5.87-16.6 6.7-2.52.35-2.47-1.61-2.45-3.3.08-6.89.19-13.77.29-20.66l-.12.1c1.06-.94 2.02-2.23 3.64-.94z" fill="#03fcfe"/>
      <path d="M696.51 48l.49 20.78-4.67-.88a1.92 1.92 0 01-.32-3.1c.07-4.16.38-8.34.16-12.49-.17-3.4 1.3-4.49 4.34-4.31z" fill="#1aecfb"/>
      <path d="M1330.3 161.2a67.46 67.46 0 010-16.62c1.43-1.18 2.79-1.23 4 .24 0 4.09-.14 8.19.13 12.27.29 3.29-1.01 4.49-4.13 4.11zm-134.13 0a67.46 67.46 0 010-16.62c1.43-1.18 2.78-1.24 4 .24 0 4.09-.15 8.19.12 12.27.29 3.29-1 4.49-4.12 4.11z" fill="#ec16f9"/>
      <path d="M427.42 68.78l-3.76-.44c-1.21-1.11-1-2.31-.22-3.55.06-4.19.29-8.39.14-12.58-.11-2.92.77-4.38 3.85-4q-.01 10.29-.01 20.57z" fill="#07fbfe"/>
      <path d="M634.85 140.81L655 141c.36 2.7-.74 3.73-3.52 3.65-4.21-.13-8.42.09-12.63.16a2.83 2.83 0 01-3.75-.21zm134.15 0l20.09.23c.36 2.7-.74 3.73-3.52 3.65-4.2-.13-8.42.09-12.62.16a2.83 2.83 0 01-3.75-.21c-.08-1.28-.15-2.56-.2-3.83z" fill="#06fdfe"/>
      <path d="M927.16 140.81l20.31.23c.33 2.61-.58 3.76-3.44 3.65-4.18-.17-8.38.06-12.57.12-1.33.73-2.64 1-3.87-.2-.14-1.26-.29-2.53-.43-3.8z" fill="#03fcfe"/>
      <path d="M1200.24 144.82l-4-.24c-.26-1.25-.52-2.51-.77-3.76l20.5.21c.23 2.47-.53 3.77-3.37 3.66-4.15-.16-8.26.07-12.36.13z" fill="#03fafd"/>
      <path d="M989 48.23q.12 10.27.25 20.55l-4-.43a2.94 2.94 0 01-.28-3.55c.09-4.19.34-8.38.21-12.56-.13-2.91.76-4.38 3.82-4.01z" fill="#00fcfe"/>
      <path d="M1334.37 144.82l-4-.24c-.26-1.25-.51-2.51-.77-3.76l20.51.21c.22 2.47-.53 3.77-3.38 3.66-4.15-.16-8.25.07-12.36.13z" fill="#03fafd"/>
      <path d="M1123.39 68.78l-3.93-.44a2.74 2.74 0 01-.25-3.55c.08-4.19.32-8.37.17-12.55-.1-2.89.73-4.4 3.83-4z" fill="#00fcfe"/>
      <path d="M1119.21 64.79c.09 1.18.17 2.37.25 3.55h-16c-.3-2.61.79-3.72 3.48-3.62 4.06.15 8.18.06 12.27.07z" fill="#ed08fb"/>
      <path d="M635.05 144.64l3.75.21c0 4.35-.16 8.7.05 13 .15 3-1.45 3.43-3.8 3.22zm134.14 0l3.75.21c0 4.35-.17 8.7 0 13 .15 3-1.45 3.43-3.8 3.22q.04-8.19.05-16.43z" fill="#fe00fe"/>
      <path d="M927.59 144.61l3.87.2c0 4.14-.14 8.28 0 12.41.13 3-.92 4.27-3.91 3.8q.05-8.2.04-16.41z" fill="#f002fb"/>
      <path d="M984.93 64.8c.09 1.18.19 2.36.28 3.55h-16.16c-.32-2.64.75-3.74 3.48-3.62 4.13.16 8.27.06 12.4.07z" fill="#ec07fa"/>
      <path d="M692 64.8c.1 1 .21 2.06.32 3.1-5.2 1.42-10.45.65-15.69.44-.34-2.66.72-3.74 3.49-3.61 3.88.19 7.88.06 11.88.07zm-268.56-.01l.22 3.55h-15.33c-.3-2.56.62-3.74 3.41-3.61 3.89.2 7.8.06 11.7.06z" fill="#f001fa"/>
      <path d="M388 141.85c.12.7.25 1.4.37 2.11a6 6 0 01-2.87 3.82c-.29-2.45 1.2-4.15 2.5-5.93z" fill="#e10ff7"/>
      <path d="M1191.53 137c.65-12.28-3.28-16.47-15.48-16.48-13 0-26-.24-39 .12-4.88.13-6.22-1.46-5.85-6.06a114.68 114.68 0 000-14.48c-.16-3.26 1.38-4 4.14-3.74.13 5.26.48 10.52.31 15.77-.12 3.66 1.21 4.66 4.74 4.61 13.27-.17 26.55-.08 39.83-.06 11.83 0 15.61 3.72 15.64 15.37 0 2.94-.21 5.88-.33 8.82l-3.74-.3c-1.2-1.08-1.08-2.28-.26-3.57z" fill="#04fcfe"/>
      <path d="M1191 89.06c1.85-11.15-2.55-16.63-13.6-16.63-16.65 0-33.3.13-50 .21-1.33.8-2.63 1-3.83-.25l-.36-3.71q29.92-.06 59.86-.13c5.93 0 10.48 2.53 12 8.22 1.33 4.55 1.85 9.72-4.07 12.29z" fill="#05fdfe"/>
      <path d="M1139.71 92.43c.1-1.6-.4-3.6 2.26-3.54 16.11.36 32.24-.88 48.33.63-1.51 2.93-4.33 3.13-7.06 3.13-14.51-.02-29.02-.14-43.53-.22z" fill="#f401fc"/>
      <path d="M366.11 71.89l-.78-.39a1.77 1.77 0 01.1-2.56c.33-1.41.67-2.82 1-4.23l4 .18c0 1.15-.09 2.3-.14 3.45-2.16.23-4.49.31-4.18 3.55z" fill="#eedffa"/>
      <path d="M830.84 143.77l-3.64.94c-.05-1.23-.11-2.45-.16-3.68l4.07-.24z" fill="#f1fefe"/>
      <path d="M696.86 68.68c19.53-.05 39.06-.16 58.59-.1 9 0 13.43 4.61 13.49 13.74.13 19.53.11 39.06.15 58.59l-4.28-.29a7.23 7.23 0 01-1.33-4.4c-.43-13.45-.09-26.9-.2-40.35 0-2.52.07-5.05-.07-7.57-.56-10-4.16-13.62-14.1-13.76-13.24-.2-26.49 0-39.73-.07a59 59 0 01-8.19-.22 6.31 6.31 0 01-4.19-1.86c-.07-1.24-.11-2.48-.14-3.71z" fill="#02fcfd"/>
      <path d="M764.41 137.05c.14 1.19.27 2.38.4 3.57-18.53.06-37.06.24-55.6.15-7.69 0-12.38-4.59-12.43-12.16-.1-18.74.1-37.48.18-56.22l3.74.25c2.38 2.63 1.93 5.9 1.95 9 .07 12.85-.07 25.7.06 38.55.12 11.37 3.44 14.71 14.79 14.84 12.85.15 25.7 0 38.55.08 2.89.04 5.95-.4 8.36 1.94z" fill="#fd00fe"/>
      <path d="M1123.66 72.39l3.83.25v48.57c0 11.73 4.21 15.81 16.11 15.82h47.94l.24 3.57c-18.54.07-37.08.26-55.62.16-7.77-.05-12.62-4.93-12.67-12.77-.11-18.52.09-37.06.17-55.6z" fill="#ed08fb"/>
      <path d="M365.43 68.94c0 .86-.07 1.71-.1 2.56-1 1.37-2.62.44-3.81 1.07.14-1.25.28-2.5.41-3.76z" fill="#fefefe"/>
      <path fill="#f0f" d="M7.37 0h163.34v41.38H7.37zm200 148.28h-.13c.1 1.13.13 2.27.13 3.44A48.28 48.28 0 01159.1 200H7.37v-41.38h152.8c6.55 0 5.83-10.34 5.83-10.34V41.38h41.37z"/>
      <path fill="#f0f" d="M71.84 79.31h73.46v41.38H71.84z"/>
      <path fill="#03ffff" d="M0 9.5h165.95v41.38H0zm200 148.28h-.14c.11 1.13.14 2.27.14 3.44a48.29 48.29 0 01-48.28 48.28H0v-41.38h152.79c6.55 0 5.83-10.34 5.83-10.34V50.88H200z"/>
      <path fill="#03ffff" d="M64.47 88.81h73.46v41.38H64.47z"/>
      <path fill="#fff" d="M4 4.5h158.62v41.38H4zm200 148.28h-.14c.11 1.13.14 2.27.14 3.44a48.29 48.29 0 01-48.28 48.28H4v-41.38h152.79c6.55 0 5.83-10.34 5.83-10.34V45.88H204z"/>
      <path fill="#fff" d="M68.47 83.81h73.46v41.38H68.47z"/>
    </g>
  </g>
</svg>
