<svg width="16" height="16" viewBox="0 0 16 16" fill="none" xmlns="http://www.w3.org/2000/svg">
<g clip-path="url(#clip0_80_30)">
<path d="M5.71429 0H1.14286C0.511695 0 0 0.511695 0 1.14286V5.71429C0 6.34545 0.511695 6.85714 1.14286 6.85714H5.71429C6.34545 6.85714 6.85714 6.34545 6.85714 5.71429V1.14286C6.85714 0.511695 6.34545 0 5.71429 0Z" fill="white"/>
<path d="M5.71429 9.14288H1.14286C0.511695 9.14288 0 9.65458 0 10.2857V14.8572C0 15.4883 0.511695 16 1.14286 16H5.71429C6.34545 16 6.85714 15.4883 6.85714 14.8572V10.2857C6.85714 9.65458 6.34545 9.14288 5.71429 9.14288Z" fill="white"/>
<path d="M14.8571 0H10.2857C9.65452 0 9.14282 0.511695 9.14282 1.14286V5.71429C9.14282 6.34545 9.65452 6.85714 10.2857 6.85714H14.8571C15.4883 6.85714 16 6.34545 16 5.71429V1.14286C16 0.511695 15.4883 0 14.8571 0Z" fill="white"/>
<path d="M14.8571 9.14288H10.2857C9.65452 9.14288 9.14282 9.65458 9.14282 10.2857V14.8572C9.14282 15.4883 9.65452 16 10.2857 16H14.8571C15.4883 16 16 15.4883 16 14.8572V10.2857C16 9.65458 15.4883 9.14288 14.8571 9.14288Z" fill="white"/>
</g>
<defs>
<clipPath id="clip0_80_30">
<rect width="16" height="16" fill="white"/>
</clipPath>
</defs>
</svg>
