<svg width="600" height="242" viewBox="0 0 600 242" fill="none" xmlns="http://www.w3.org/2000/svg">
<path d="M360.116 23.7812L332.452 0H508.142L532.894 23.7812H360.116Z" fill="#3180FF" fill-opacity="0.75"/>
<path d="M234.9 23.7812L207.236 0H227.62L252.372 23.7812H234.9Z" fill="#3180FF" fill-opacity="0.75"/>
<path d="M262.079 23.7812L234.415 0H254.799L279.551 23.7812H262.079Z" fill="#3180FF" fill-opacity="0.75"/>
<path d="M289.257 23.7812L261.593 0H281.977L306.729 23.7812H289.257Z" fill="#3180FF" fill-opacity="0.75"/>
<path d="M316.436 23.7812L288.772 0H309.156L333.908 23.7812H316.436Z" fill="#3180FF" fill-opacity="0.75"/>
<path d="M0 71.3435V221.311L24.5 242V57.5742L63.093 19.413H183.455L223.252 51.9302H534L576.224 93.6687V176.724L583.018 168.724V90.7567L536.912 44.6503H227.135L186.367 12.6184H58.7251L0 71.3435Z" fill="#3180FF" fill-opacity="0.75"/>
<path d="M32.5 59.2107V112H568V96.0958L526.585 57.2693H221.797L181.514 23.7815H65.5202L32.5 59.2107Z" fill="#3180FF" fill-opacity="0.1"/>
</svg>
